#N canvas 1258 205 606 300 12;
#X obj 64 201 dac~;
#X floatatom 60 13 5 0 0 0 - - - 0;
#X floatatom 265 64 5 0 0 0 - - - 0;
#X obj 265 96 osc~;
#X obj 265 134 *~ 0.75;
#X obj 267 31 * 2;
#X obj 63 159 *~ 0.25;
#X obj 63 77 osc~ 500;
#X connect 1 0 5 0;
#X connect 1 0 7 0;
#X connect 2 0 3 0;
#X connect 3 0 4 0;
#X connect 4 0 6 0;
#X connect 5 0 2 0;
#X connect 6 0 0 0;
#X connect 6 0 0 1;
#X connect 7 0 6 0;
